<svg width="352" height="24" viewBox="0 0 352 24" fill="none" xmlns="http://www.w3.org/2000/svg">
<rect width="107.496" height="1" transform="translate(0 11.5)" fill="#E5E7EB"/>
<path d="M123.076 16.1364C122.485 16.1364 121.966 15.9957 121.52 15.7145C121.077 15.4332 120.73 15.0398 120.48 14.5341C120.233 14.0284 120.11 13.4375 120.11 12.7614C120.11 12.0795 120.233 11.4844 120.48 10.9759C120.73 10.4673 121.077 10.0724 121.52 9.79119C121.966 9.50994 122.485 9.36932 123.076 9.36932C123.667 9.36932 124.184 9.50994 124.627 9.79119C125.073 10.0724 125.419 10.4673 125.667 10.9759C125.917 11.4844 126.042 12.0795 126.042 12.7614C126.042 13.4375 125.917 14.0284 125.667 14.5341C125.419 15.0398 125.073 15.4332 124.627 15.7145C124.184 15.9957 123.667 16.1364 123.076 16.1364ZM123.076 15.233C123.525 15.233 123.894 15.1179 124.184 14.8878C124.473 14.6577 124.688 14.3551 124.827 13.9801C124.966 13.6051 125.036 13.1989 125.036 12.7614C125.036 12.3239 124.966 11.9162 124.827 11.5384C124.688 11.1605 124.473 10.8551 124.184 10.6222C123.894 10.3892 123.525 10.2727 123.076 10.2727C122.627 10.2727 122.257 10.3892 121.968 10.6222C121.678 10.8551 121.463 11.1605 121.324 11.5384C121.185 11.9162 121.115 12.3239 121.115 12.7614C121.115 13.1989 121.185 13.6051 121.324 13.9801C121.463 14.3551 121.678 14.6577 121.968 14.8878C122.257 15.1179 122.627 15.233 123.076 15.233ZM127.577 16V9.45455H128.548V10.4432H128.616C128.736 10.1193 128.952 9.85653 129.264 9.65483C129.577 9.45312 129.929 9.35227 130.321 9.35227C130.395 9.35227 130.487 9.35369 130.598 9.35653C130.709 9.35937 130.793 9.36364 130.849 9.36932V10.392C130.815 10.3835 130.737 10.3707 130.615 10.3537C130.496 10.3338 130.369 10.3239 130.236 10.3239C129.918 10.3239 129.634 10.3906 129.384 10.5241C129.136 10.6548 128.94 10.8366 128.795 11.0696C128.653 11.2997 128.582 11.5625 128.582 11.858V16H127.577ZM140.053 10.9205L139.15 11.1761C139.093 11.0256 139.009 10.8793 138.898 10.7372C138.79 10.5923 138.642 10.473 138.455 10.3793C138.267 10.2855 138.027 10.2386 137.735 10.2386C137.334 10.2386 137 10.331 136.733 10.5156C136.469 10.6974 136.337 10.929 136.337 11.2102C136.337 11.4602 136.428 11.6577 136.61 11.8026C136.792 11.9474 137.076 12.0682 137.462 12.1648L138.434 12.4034C139.019 12.5455 139.455 12.7628 139.742 13.0554C140.029 13.3452 140.172 13.7187 140.172 14.1761C140.172 14.5511 140.064 14.8864 139.848 15.1818C139.635 15.4773 139.337 15.7102 138.953 15.8807C138.57 16.0511 138.124 16.1364 137.615 16.1364C136.948 16.1364 136.395 15.9915 135.958 15.7017C135.52 15.4119 135.243 14.9886 135.127 14.4318L136.081 14.1932C136.172 14.5455 136.344 14.8097 136.597 14.9858C136.853 15.1619 137.186 15.25 137.598 15.25C138.067 15.25 138.439 15.1506 138.715 14.9517C138.993 14.75 139.132 14.5085 139.132 14.2273C139.132 14 139.053 13.8097 138.894 13.6562C138.735 13.5 138.49 13.3835 138.161 13.3068L137.07 13.0511C136.471 12.9091 136.03 12.6889 135.749 12.3906C135.471 12.0895 135.331 11.7131 135.331 11.2614C135.331 10.892 135.435 10.5653 135.642 10.2812C135.853 9.99716 136.138 9.77415 136.499 9.61222C136.863 9.45028 137.275 9.36932 137.735 9.36932C138.382 9.36932 138.891 9.51136 139.26 9.79545C139.632 10.0795 139.897 10.4545 140.053 10.9205ZM141.686 16V9.45455H142.692V16H141.686ZM142.197 8.36364C142.001 8.36364 141.832 8.29688 141.69 8.16335C141.551 8.02983 141.482 7.86932 141.482 7.68182C141.482 7.49432 141.551 7.33381 141.69 7.20028C141.832 7.06676 142.001 7 142.197 7C142.393 7 142.561 7.06676 142.7 7.20028C142.842 7.33381 142.913 7.49432 142.913 7.68182C142.913 7.86932 142.842 8.02983 142.7 8.16335C142.561 8.29688 142.393 8.36364 142.197 8.36364ZM147.176 18.5909C146.69 18.5909 146.272 18.5284 145.923 18.4034C145.574 18.2812 145.282 18.1193 145.049 17.9176C144.819 17.7188 144.636 17.5057 144.5 17.2784L145.301 16.7159C145.392 16.8352 145.507 16.9716 145.646 17.125C145.785 17.2812 145.975 17.4162 146.217 17.5298C146.461 17.6463 146.781 17.7045 147.176 17.7045C147.704 17.7045 148.14 17.5767 148.484 17.321C148.828 17.0653 149 16.6648 149 16.1193V14.7898H148.914C148.841 14.9091 148.735 15.0568 148.599 15.233C148.466 15.4062 148.272 15.5611 148.02 15.6974C147.77 15.831 147.431 15.8977 147.005 15.8977C146.477 15.8977 146.002 15.7727 145.582 15.5227C145.164 15.2727 144.833 14.9091 144.589 14.4318C144.348 13.9545 144.227 13.375 144.227 12.6932C144.227 12.0227 144.345 11.4389 144.581 10.9418C144.816 10.4418 145.145 10.0554 145.565 9.78267C145.985 9.5071 146.471 9.36932 147.022 9.36932C147.449 9.36932 147.787 9.44034 148.037 9.58239C148.289 9.72159 148.483 9.88068 148.616 10.0597C148.752 10.2358 148.858 10.3807 148.931 10.4943H149.034V9.45455H150.005V16.1875C150.005 16.75 149.877 17.2074 149.622 17.5597C149.369 17.9148 149.028 18.1747 148.599 18.3395C148.173 18.5071 147.699 18.5909 147.176 18.5909ZM147.142 14.9943C147.545 14.9943 147.886 14.902 148.164 14.7173C148.443 14.5327 148.654 14.267 148.799 13.9205C148.944 13.5739 149.017 13.1591 149.017 12.6761C149.017 12.2045 148.946 11.7884 148.804 11.4276C148.662 11.0668 148.451 10.7841 148.173 10.5795C147.895 10.375 147.551 10.2727 147.142 10.2727C146.716 10.2727 146.36 10.3807 146.076 10.5966C145.795 10.8125 145.583 11.1023 145.441 11.4659C145.302 11.8295 145.233 12.233 145.233 12.6761C145.233 13.1307 145.304 13.5327 145.446 13.8821C145.591 14.2287 145.804 14.5014 146.085 14.7003C146.369 14.8963 146.721 14.9943 147.142 14.9943ZM152.852 12.0625V16H151.846V9.45455H152.818V10.4773H152.903C153.056 10.1449 153.289 9.87784 153.602 9.67614C153.914 9.47159 154.318 9.36932 154.812 9.36932C155.255 9.36932 155.643 9.46023 155.975 9.64205C156.308 9.82102 156.566 10.0938 156.751 10.4602C156.936 10.8239 157.028 11.2841 157.028 11.8409V16H156.022V11.9091C156.022 11.3949 155.889 10.9943 155.622 10.7074C155.355 10.4176 154.988 10.2727 154.522 10.2727C154.201 10.2727 153.914 10.3423 153.662 10.4815C153.412 10.6207 153.214 10.8239 153.069 11.0909C152.924 11.358 152.852 11.6818 152.852 12.0625ZM162.241 16V9.45455H163.246V16H162.241ZM162.752 8.36364C162.556 8.36364 162.387 8.29688 162.245 8.16335C162.106 8.02983 162.036 7.86932 162.036 7.68182C162.036 7.49432 162.106 7.33381 162.245 7.20028C162.387 7.06676 162.556 7 162.752 7C162.948 7 163.116 7.06676 163.255 7.20028C163.397 7.33381 163.468 7.49432 163.468 7.68182C163.468 7.86932 163.397 8.02983 163.255 8.16335C163.116 8.29688 162.948 8.36364 162.752 8.36364ZM166.094 12.0625V16H165.088V9.45455H166.06V10.4773H166.145C166.299 10.1449 166.532 9.87784 166.844 9.67614C167.157 9.47159 167.56 9.36932 168.054 9.36932C168.498 9.36932 168.885 9.46023 169.218 9.64205C169.55 9.82102 169.809 10.0938 169.993 10.4602C170.178 10.8239 170.27 11.2841 170.27 11.8409V16H169.265V11.9091C169.265 11.3949 169.131 10.9943 168.864 10.7074C168.597 10.4176 168.23 10.2727 167.765 10.2727C167.444 10.2727 167.157 10.3423 166.904 10.4815C166.654 10.6207 166.456 10.8239 166.311 11.0909C166.167 11.358 166.094 11.6818 166.094 12.0625ZM176.966 16L174.972 9.45455H176.028L177.443 14.4659H177.511L178.909 9.45455H179.983L181.364 14.4489H181.432L182.847 9.45455H183.903L181.909 16H180.92L179.489 10.9716H179.386L177.955 16H176.966ZM185.233 16V9.45455H186.239V16H185.233ZM185.744 8.36364C185.548 8.36364 185.379 8.29688 185.237 8.16335C185.098 8.02983 185.028 7.86932 185.028 7.68182C185.028 7.49432 185.098 7.33381 185.237 7.20028C185.379 7.06676 185.548 7 185.744 7C185.94 7 186.108 7.06676 186.247 7.20028C186.389 7.33381 186.46 7.49432 186.46 7.68182C186.46 7.86932 186.389 8.02983 186.247 8.16335C186.108 8.29688 185.94 8.36364 185.744 8.36364ZM190.927 9.45455V10.3068H187.535V9.45455H190.927ZM188.524 7.88636H189.529V14.125C189.529 14.4091 189.571 14.6222 189.653 14.7642C189.738 14.9034 189.846 14.9972 189.977 15.0455C190.11 15.0909 190.251 15.1136 190.399 15.1136C190.51 15.1136 190.6 15.108 190.672 15.0966C190.743 15.0824 190.799 15.071 190.842 15.0625L191.047 15.9659C190.978 15.9915 190.883 16.017 190.761 16.0426C190.639 16.071 190.484 16.0852 190.297 16.0852C190.012 16.0852 189.734 16.0241 189.461 15.902C189.191 15.7798 188.967 15.5938 188.788 15.3438C188.612 15.0938 188.524 14.7784 188.524 14.3977V7.88636ZM193.586 12.0625V16H192.581V7.27273H193.586V10.4773H193.672C193.825 10.1392 194.055 9.87074 194.362 9.67188C194.672 9.47017 195.083 9.36932 195.598 9.36932C196.044 9.36932 196.434 9.45881 196.77 9.63778C197.105 9.81392 197.365 10.0852 197.549 10.4517C197.737 10.8153 197.831 11.2784 197.831 11.8409V16H196.825V11.9091C196.825 11.3892 196.69 10.9872 196.42 10.7031C196.153 10.4162 195.782 10.2727 195.308 10.2727C194.978 10.2727 194.683 10.3423 194.422 10.4815C194.163 10.6207 193.958 10.8239 193.808 11.0909C193.66 11.358 193.586 11.6818 193.586 12.0625ZM205.79 16.1364C205.159 16.1364 204.615 15.9972 204.158 15.7188C203.703 15.4375 203.352 15.0455 203.105 14.5426C202.861 14.0369 202.739 13.4489 202.739 12.7784C202.739 12.108 202.861 11.517 203.105 11.0057C203.352 10.4915 203.696 10.0909 204.136 9.80398C204.58 9.5142 205.097 9.36932 205.688 9.36932C206.028 9.36932 206.365 9.42614 206.697 9.53977C207.03 9.65341 207.332 9.83807 207.605 10.0938C207.878 10.3466 208.095 10.6818 208.257 11.0994C208.419 11.517 208.5 12.0312 208.5 12.642V13.0682H203.455V12.1989H207.477C207.477 11.8295 207.403 11.5 207.256 11.2102C207.111 10.9205 206.903 10.6918 206.634 10.5241C206.366 10.3565 206.051 10.2727 205.688 10.2727C205.287 10.2727 204.94 10.3722 204.648 10.571C204.358 10.767 204.135 11.0227 203.979 11.3381C203.822 11.6534 203.744 11.9915 203.744 12.3523V12.9318C203.744 13.4261 203.83 13.8452 204 14.1889C204.173 14.5298 204.413 14.7898 204.72 14.9688C205.027 15.1449 205.384 15.233 205.79 15.233C206.054 15.233 206.293 15.196 206.506 15.1222C206.722 15.0455 206.908 14.9318 207.064 14.7812C207.22 14.6278 207.341 14.4375 207.426 14.2102L208.398 14.483C208.295 14.8125 208.124 15.1023 207.882 15.3523C207.641 15.5994 207.342 15.7926 206.987 15.9318C206.632 16.0682 206.233 16.1364 205.79 16.1364ZM210.03 16V9.45455H211.001V10.4773H211.087C211.223 10.1278 211.443 9.85653 211.747 9.66335C212.051 9.46733 212.416 9.36932 212.842 9.36932C213.274 9.36932 213.634 9.46733 213.92 9.66335C214.21 9.85653 214.436 10.1278 214.598 10.4773H214.666C214.834 10.1392 215.085 9.87074 215.42 9.67188C215.756 9.47017 216.158 9.36932 216.626 9.36932C217.212 9.36932 217.69 9.55256 218.062 9.91903C218.435 10.2827 218.621 10.8494 218.621 11.6193V16H217.615V11.6193C217.615 11.1364 217.483 10.7912 217.219 10.5838C216.955 10.3764 216.643 10.2727 216.286 10.2727C215.825 10.2727 215.469 10.4119 215.216 10.6903C214.963 10.9659 214.837 11.3153 214.837 11.7386V16H213.814V11.517C213.814 11.1449 213.693 10.8452 213.452 10.6179C213.21 10.3878 212.899 10.2727 212.518 10.2727C212.257 10.2727 212.013 10.3423 211.786 10.4815C211.561 10.6207 211.379 10.8139 211.24 11.0611C211.104 11.3054 211.036 11.5881 211.036 11.9091V16H210.03ZM222.386 16.1534C221.971 16.1534 221.594 16.0753 221.256 15.919C220.918 15.7599 220.65 15.5312 220.451 15.233C220.252 14.9318 220.153 14.5682 220.153 14.142C220.153 13.767 220.227 13.4631 220.374 13.2301C220.522 12.9943 220.719 12.8097 220.967 12.6761C221.214 12.5426 221.487 12.4432 221.785 12.3778C222.086 12.3097 222.388 12.2557 222.692 12.2159C223.09 12.1648 223.413 12.1264 223.66 12.1009C223.91 12.0724 224.092 12.0256 224.205 11.9602C224.322 11.8949 224.38 11.7812 224.38 11.6193V11.5852C224.38 11.1648 224.265 10.8381 224.035 10.6051C223.808 10.3722 223.462 10.2557 222.999 10.2557C222.519 10.2557 222.143 10.3608 221.87 10.571C221.597 10.7812 221.406 11.0057 221.295 11.2443L220.34 10.9034C220.511 10.5057 220.738 10.196 221.022 9.97443C221.309 9.75 221.621 9.59375 221.96 9.50568C222.3 9.41477 222.636 9.36932 222.965 9.36932C223.175 9.36932 223.417 9.39489 223.69 9.44602C223.965 9.49432 224.231 9.59517 224.487 9.74858C224.745 9.90199 224.96 10.1335 225.13 10.4432C225.3 10.7528 225.386 11.1676 225.386 11.6875V16H224.38V15.1136H224.329C224.261 15.2557 224.147 15.4077 223.988 15.5696C223.829 15.7315 223.617 15.8693 223.353 15.983C223.089 16.0966 222.766 16.1534 222.386 16.1534ZM222.539 15.25C222.937 15.25 223.272 15.1719 223.545 15.0156C223.82 14.8594 224.028 14.6577 224.167 14.4105C224.309 14.1634 224.38 13.9034 224.38 13.6307V12.7102C224.337 12.7614 224.244 12.8082 224.099 12.8509C223.957 12.8906 223.792 12.9261 223.604 12.9574C223.42 12.9858 223.239 13.0114 223.063 13.0341C222.89 13.054 222.749 13.071 222.641 13.0852C222.38 13.1193 222.136 13.1747 221.908 13.2514C221.684 13.3253 221.502 13.4375 221.363 13.5881C221.227 13.7358 221.158 13.9375 221.158 14.1932C221.158 14.5426 221.288 14.8068 221.546 14.9858C221.808 15.1619 222.138 15.25 222.539 15.25ZM227.221 16V9.45455H228.227V16H227.221ZM227.733 8.36364C227.537 8.36364 227.368 8.29688 227.225 8.16335C227.086 8.02983 227.017 7.86932 227.017 7.68182C227.017 7.49432 227.086 7.33381 227.225 7.20028C227.368 7.06676 227.537 7 227.733 7C227.929 7 228.096 7.06676 228.235 7.20028C228.377 7.33381 228.449 7.49432 228.449 7.68182C228.449 7.86932 228.377 8.02983 228.235 8.16335C228.096 8.29688 227.929 8.36364 227.733 8.36364ZM231.075 7.27273V16H230.069V7.27273H231.075Z" fill="#6B7280"/>
<rect width="107.504" height="1" transform="translate(244.496 11.5)" fill="#E5E7EB"/>
</svg>
