<svg width="48" height="48" viewBox="0 0 48 48" fill="none" xmlns="http://www.w3.org/2000/svg">
<path d="M0 16C0 7.16344 7.16344 0 16 0H32C40.8366 0 48 7.16344 48 16V32C48 40.8366 40.8366 48 32 48H16C7.16344 48 0 40.8366 0 32V16Z" fill="#EDE9FE"/>
<path d="M31.3333 16.6667H16.6666C15.6541 16.6667 14.8333 17.4875 14.8333 18.5V29.5C14.8333 30.5125 15.6541 31.3333 16.6666 31.3333H31.3333C32.3458 31.3333 33.1666 30.5125 33.1666 29.5V18.5C33.1666 17.4875 32.3458 16.6667 31.3333 16.6667Z" stroke="#5046E5" stroke-width="1.83333" stroke-linecap="round" stroke-linejoin="round"/>
<path d="M33.1666 19.4167L24.9441 24.6417C24.6611 24.819 24.3339 24.913 23.9999 24.913C23.666 24.913 23.3388 24.819 23.0558 24.6417L14.8333 19.4167" stroke="#5046E5" stroke-width="1.83333" stroke-linecap="round" stroke-linejoin="round"/>
</svg>
