<svg width="48" height="48" viewBox="0 0 48 48" fill="none" xmlns="http://www.w3.org/2000/svg">
<path d="M0 16C0 7.16344 7.16344 0 16 0H32C40.8366 0 48 7.16344 48 16V32C48 40.8366 40.8366 48 32 48H16C7.16344 48 0 40.8366 0 32V16Z" fill="#EDE9FE"/>
<path d="M30.4167 23.0834H17.5833C16.5708 23.0834 15.75 23.9042 15.75 24.9167V31.3334C15.75 32.3459 16.5708 33.1667 17.5833 33.1667H30.4167C31.4292 33.1667 32.25 32.3459 32.25 31.3334V24.9167C32.25 23.9042 31.4292 23.0834 30.4167 23.0834Z" stroke="#5046E5" stroke-width="1.83333" stroke-linecap="round" stroke-linejoin="round"/>
<path d="M19.4167 23.0834V19.4167C19.4167 18.2011 19.8996 17.0353 20.7591 16.1758C21.6187 15.3163 22.7844 14.8334 24 14.8334C25.2156 14.8334 26.3814 15.3163 27.2409 16.1758C28.1005 17.0353 28.5834 18.2011 28.5834 19.4167V23.0834" stroke="#5046E5" stroke-width="1.83333" stroke-linecap="round" stroke-linejoin="round"/>
</svg>
