<svg width="352" height="32" viewBox="0 0 352 32" fill="none" xmlns="http://www.w3.org/2000/svg">
<rect width="158" height="1" transform="translate(0 7.5)" fill="#E5E7EB"/>
<path d="M173.58 12.1364C172.989 12.1364 172.47 11.9957 172.024 11.7145C171.581 11.4332 171.234 11.0398 170.984 10.5341C170.737 10.0284 170.614 9.4375 170.614 8.76136C170.614 8.07955 170.737 7.48437 170.984 6.97585C171.234 6.46733 171.581 6.07244 172.024 5.79119C172.47 5.50994 172.989 5.36932 173.58 5.36932C174.17 5.36932 174.688 5.50994 175.131 5.79119C175.577 6.07244 175.923 6.46733 176.17 6.97585C176.42 7.48437 176.545 8.07955 176.545 8.76136C176.545 9.4375 176.42 10.0284 176.17 10.5341C175.923 11.0398 175.577 11.4332 175.131 11.7145C174.688 11.9957 174.17 12.1364 173.58 12.1364ZM173.58 11.233C174.028 11.233 174.398 11.1179 174.688 10.8878C174.977 10.6577 175.192 10.3551 175.331 9.98011C175.47 9.60511 175.54 9.19886 175.54 8.76136C175.54 8.32386 175.47 7.91619 175.331 7.53835C175.192 7.16051 174.977 6.85511 174.688 6.62216C174.398 6.3892 174.028 6.27273 173.58 6.27273C173.131 6.27273 172.761 6.3892 172.472 6.62216C172.182 6.85511 171.967 7.16051 171.828 7.53835C171.689 7.91619 171.619 8.32386 171.619 8.76136C171.619 9.19886 171.689 9.60511 171.828 9.98011C171.967 10.3551 172.182 10.6577 172.472 10.8878C172.761 11.1179 173.131 11.233 173.58 11.233ZM178.081 12V5.45455H179.052V6.44318H179.12C179.24 6.11932 179.456 5.85653 179.768 5.65483C180.081 5.45312 180.433 5.35227 180.825 5.35227C180.899 5.35227 180.991 5.35369 181.102 5.35653C181.213 5.35937 181.297 5.36364 181.353 5.36932V6.39205C181.319 6.38352 181.241 6.37074 181.119 6.35369C181 6.33381 180.873 6.32386 180.74 6.32386C180.422 6.32386 180.137 6.39062 179.887 6.52415C179.64 6.65483 179.444 6.83665 179.299 7.0696C179.157 7.29972 179.086 7.5625 179.086 7.85795V12H178.081Z" fill="#6B7280"/>
<rect width="158" height="1" transform="translate(194 7.5)" fill="#E5E7EB"/>
</svg>
